# xmcd
#
# Track frame offsets: 
#        150
#        15294
#        36127
#        56148
#        85299
#        101424
#        122068
#        149606
#        178910
#
# Disc length: 2483 seconds
#
# Revision: 0
# Processed by: cddbd v1.5.2PL0 Copyright (c) Steve Scherf et al.
# Submitted via: ExactAudioCopyFreeDBPlugin 1.0
#
DISCID=7709b109
DTITLE=Lynn Johnson - It's Time To Sing
DYEAR=2011
DGENRE=Gospel
TTITLE0=Let Your River Flow
TTITLE1=You're My Meditation
TTITLE2=You
TTITLE3=Lord You Are
TTITLE4=Time To Sing
TTITLE5=In This Place
TTITLE6=What Shall I Give
TTITLE7=It Is Well
TTITLE8=You (Reprise)
EXTD=
EXTT0=
EXTT1=
EXTT2=
EXTT3=
EXTT4=
EXTT5=
EXTT6=
EXTT7=
EXTT8=
PLAYORDER=
